<svg width="754" height="44" viewBox="0 0 754 44" fill="none" xmlns="http://www.w3.org/2000/svg">
<path d="M476.114 33V15.5455H478.227V31.125H486.341V33H476.114ZM492.014 33V15.5455H502.548V17.4205H494.127V23.3182H502.002V25.1932H494.127V31.125H502.684V33H492.014ZM507.803 17.4205V15.5455H520.894V17.4205H515.405V33H513.291V17.4205H507.803ZM528.056 15.5455V17.0795C528.056 17.5455 527.971 18.0426 527.8 18.571C527.635 19.0938 527.391 19.6023 527.067 20.0966C526.749 20.5852 526.363 21.0114 525.908 21.375L524.817 20.4886C525.175 19.9773 525.485 19.446 525.746 18.8949C526.013 18.3381 526.147 17.7443 526.147 17.1136V15.5455H528.056ZM542.931 19.9091C542.829 19.0455 542.414 18.375 541.687 17.8977C540.959 17.4205 540.067 17.1818 539.011 17.1818C538.238 17.1818 537.562 17.3068 536.982 17.5568C536.408 17.8068 535.959 18.1506 535.636 18.5881C535.317 19.0256 535.158 19.5227 535.158 20.0795C535.158 20.5455 535.269 20.946 535.491 21.2812C535.718 21.6108 536.008 21.8864 536.36 22.108C536.712 22.3239 537.082 22.5028 537.468 22.6449C537.854 22.7812 538.209 22.892 538.533 22.9773L540.306 23.4545C540.761 23.5739 541.266 23.7386 541.823 23.9489C542.386 24.1591 542.922 24.446 543.434 24.8097C543.951 25.1676 544.377 25.6278 544.712 26.1903C545.047 26.7528 545.215 27.4432 545.215 28.2614C545.215 29.2045 544.968 30.0568 544.474 30.8182C543.985 31.5795 543.269 32.1847 542.326 32.6335C541.388 33.0824 540.249 33.3068 538.908 33.3068C537.658 33.3068 536.576 33.1051 535.661 32.7017C534.752 32.2983 534.036 31.7358 533.513 31.0142C532.996 30.2926 532.704 29.4545 532.636 28.5H534.817C534.874 29.1591 535.096 29.7045 535.482 30.1364C535.874 30.5625 536.368 30.8807 536.965 31.0909C537.567 31.2955 538.215 31.3977 538.908 31.3977C539.715 31.3977 540.439 31.267 541.082 31.0057C541.724 30.7386 542.232 30.3693 542.607 29.8977C542.982 29.4205 543.17 28.8636 543.17 28.2273C543.17 27.6477 543.008 27.1761 542.684 26.8125C542.36 26.4489 541.934 26.1534 541.405 25.9261C540.877 25.6989 540.306 25.5 539.692 25.3295L537.545 24.7159C536.181 24.3239 535.101 23.7642 534.306 23.0369C533.511 22.3097 533.113 21.358 533.113 20.1818C533.113 19.2045 533.377 18.3523 533.905 17.625C534.439 16.892 535.155 16.3239 536.053 15.9205C536.957 15.5114 537.965 15.3068 539.079 15.3068C540.204 15.3068 541.204 15.5085 542.079 15.9119C542.954 16.3097 543.647 16.8551 544.158 17.5483C544.675 18.2415 544.948 19.0284 544.976 19.9091H542.931ZM572.172 21C571.985 20.4261 571.737 19.9119 571.431 19.4574C571.129 18.9972 570.769 18.6051 570.348 18.2812C569.933 17.9574 569.462 17.7102 568.933 17.5398C568.405 17.3693 567.825 17.2841 567.195 17.2841C566.161 17.2841 565.22 17.5511 564.374 18.0852C563.527 18.6193 562.854 19.4062 562.354 20.446C561.854 21.4858 561.604 22.7614 561.604 24.2727C561.604 25.7841 561.857 27.0597 562.362 28.0994C562.868 29.1392 563.553 29.9261 564.416 30.4602C565.28 30.9943 566.252 31.2614 567.331 31.2614C568.331 31.2614 569.212 31.0483 569.973 30.6222C570.74 30.1903 571.337 29.5824 571.763 28.7983C572.195 28.0085 572.411 27.0795 572.411 26.0114L573.058 26.1477H567.808V24.2727H574.456V26.1477C574.456 27.5852 574.149 28.8352 573.536 29.8977C572.928 30.9602 572.087 31.7841 571.013 32.3693C569.945 32.9489 568.717 33.2386 567.331 33.2386C565.786 33.2386 564.428 32.875 563.257 32.1477C562.092 31.4205 561.183 30.3864 560.53 29.0455C559.882 27.7045 559.558 26.1136 559.558 24.2727C559.558 22.892 559.743 21.6506 560.112 20.5483C560.487 19.4403 561.016 18.4972 561.698 17.7188C562.379 16.9403 563.186 16.3438 564.118 15.929C565.05 15.5142 566.075 15.3068 567.195 15.3068C568.115 15.3068 568.973 15.446 569.769 15.7244C570.57 15.9972 571.283 16.3864 571.908 16.892C572.538 17.392 573.064 17.9915 573.485 18.6903C573.905 19.3835 574.195 20.1534 574.354 21H572.172ZM595.203 24.2727C595.203 26.1136 594.871 27.7045 594.206 29.0455C593.541 30.3864 592.63 31.4205 591.47 32.1477C590.311 32.875 588.988 33.2386 587.499 33.2386C586.01 33.2386 584.686 32.875 583.527 32.1477C582.368 31.4205 581.456 30.3864 580.791 29.0455C580.127 27.7045 579.794 26.1136 579.794 24.2727C579.794 22.4318 580.127 20.8409 580.791 19.5C581.456 18.1591 582.368 17.125 583.527 16.3977C584.686 15.6705 586.01 15.3068 587.499 15.3068C588.988 15.3068 590.311 15.6705 591.47 16.3977C592.63 17.125 593.541 18.1591 594.206 19.5C594.871 20.8409 595.203 22.4318 595.203 24.2727ZM593.158 24.2727C593.158 22.7614 592.905 21.4858 592.399 20.446C591.899 19.4062 591.22 18.6193 590.363 18.0852C589.51 17.5511 588.556 17.2841 587.499 17.2841C586.442 17.2841 585.485 17.5511 584.627 18.0852C583.774 18.6193 583.095 19.4062 582.59 20.446C582.09 21.4858 581.84 22.7614 581.84 24.2727C581.84 25.7841 582.09 27.0597 582.59 28.0994C583.095 29.1392 583.774 29.9261 584.627 30.4602C585.485 30.9943 586.442 31.2614 587.499 31.2614C588.556 31.2614 589.51 30.9943 590.363 30.4602C591.22 29.9261 591.899 29.1392 592.399 28.0994C592.905 27.0597 593.158 25.7841 593.158 24.2727ZM624.353 21H622.239C622.114 20.392 621.895 19.858 621.583 19.3977C621.276 18.9375 620.901 18.5511 620.458 18.2386C620.02 17.9205 619.535 17.6818 619.001 17.5227C618.466 17.3636 617.91 17.2841 617.33 17.2841C616.273 17.2841 615.316 17.5511 614.458 18.0852C613.606 18.6193 612.927 19.4062 612.421 20.446C611.921 21.4858 611.671 22.7614 611.671 24.2727C611.671 25.7841 611.921 27.0597 612.421 28.0994C612.927 29.1392 613.606 29.9261 614.458 30.4602C615.316 30.9943 616.273 31.2614 617.33 31.2614C617.91 31.2614 618.466 31.1818 619.001 31.0227C619.535 30.8636 620.02 30.6278 620.458 30.3153C620.901 29.9972 621.276 29.608 621.583 29.1477C621.895 28.6818 622.114 28.1477 622.239 27.5455H624.353C624.194 28.4375 623.904 29.2358 623.484 29.9403C623.063 30.6449 622.54 31.2443 621.915 31.7386C621.29 32.2273 620.589 32.5994 619.81 32.8551C619.038 33.1108 618.211 33.2386 617.33 33.2386C615.841 33.2386 614.518 32.875 613.359 32.1477C612.199 31.4205 611.288 30.3864 610.623 29.0455C609.958 27.7045 609.626 26.1136 609.626 24.2727C609.626 22.4318 609.958 20.8409 610.623 19.5C611.288 18.1591 612.199 17.125 613.359 16.3977C614.518 15.6705 615.841 15.3068 617.33 15.3068C618.211 15.3068 619.038 15.4347 619.81 15.6903C620.589 15.946 621.29 16.321 621.915 16.8153C622.54 17.304 623.063 17.9006 623.484 18.6051C623.904 19.304 624.194 20.1023 624.353 21ZM630.884 33H628.668L635.077 15.5455H637.259L643.668 33H641.452L636.237 18.3068H636.1L630.884 33ZM631.702 26.1818H640.634V28.0568H631.702V26.1818ZM648.787 15.5455H651.31L657.242 30.0341H657.446L663.378 15.5455H665.901V33H663.923V19.7386H663.753L658.298 33H656.389L650.935 19.7386H650.764V33H648.787V15.5455ZM672.539 33V15.5455H678.436C679.806 15.5455 680.925 15.7926 681.794 16.2869C682.669 16.7756 683.317 17.4375 683.738 18.2727C684.158 19.108 684.368 20.0398 684.368 21.0682C684.368 22.0966 684.158 23.0312 683.738 23.8722C683.323 24.7131 682.681 25.3835 681.811 25.8835C680.942 26.3778 679.828 26.625 678.47 26.625H674.243V24.75H678.402C679.34 24.75 680.093 24.5881 680.661 24.2642C681.229 23.9403 681.641 23.5028 681.897 22.9517C682.158 22.3949 682.289 21.767 682.289 21.0682C682.289 20.3693 682.158 19.7443 681.897 19.1932C681.641 18.642 681.226 18.2102 680.652 17.8977C680.078 17.5795 679.317 17.4205 678.368 17.4205H674.652V33H672.539ZM692.287 15.5455V33H690.173V15.5455H692.287ZM712.765 15.5455V33H710.72L701.209 19.2955H701.038V33H698.925V15.5455H700.97L710.515 29.2841H710.686V15.5455H712.765ZM731.327 21C731.139 20.4261 730.892 19.9119 730.585 19.4574C730.284 18.9972 729.923 18.6051 729.503 18.2812C729.088 17.9574 728.616 17.7102 728.088 17.5398C727.56 17.3693 726.98 17.2841 726.349 17.2841C725.315 17.2841 724.375 17.5511 723.528 18.0852C722.682 18.6193 722.009 19.4062 721.509 20.446C721.009 21.4858 720.759 22.7614 720.759 24.2727C720.759 25.7841 721.011 27.0597 721.517 28.0994C722.023 29.1392 722.707 29.9261 723.571 30.4602C724.435 30.9943 725.406 31.2614 726.486 31.2614C727.486 31.2614 728.366 31.0483 729.128 30.6222C729.895 30.1903 730.491 29.5824 730.918 28.7983C731.349 28.0085 731.565 27.0795 731.565 26.0114L732.213 26.1477H726.963V24.2727H733.611V26.1477C733.611 27.5852 733.304 28.8352 732.69 29.8977C732.082 30.9602 731.241 31.7841 730.168 32.3693C729.099 32.9489 727.872 33.2386 726.486 33.2386C724.94 33.2386 723.582 32.875 722.412 32.1477C721.247 31.4205 720.338 30.3864 719.685 29.0455C719.037 27.7045 718.713 26.1136 718.713 24.2727C718.713 22.892 718.898 21.6506 719.267 20.5483C719.642 19.4403 720.17 18.4972 720.852 17.7188C721.534 16.9403 722.341 16.3438 723.273 15.929C724.205 15.5142 725.23 15.3068 726.349 15.3068C727.27 15.3068 728.128 15.446 728.923 15.7244C729.724 15.9972 730.438 16.3864 731.062 16.892C731.693 17.392 732.219 17.9915 732.639 18.6903C733.06 19.3835 733.349 20.1534 733.509 21H731.327ZM751.167 15.5455L750.997 28.0909H749.019L748.849 15.5455H751.167ZM750.008 33.1364C749.588 33.1364 749.227 32.9858 748.926 32.6847C748.625 32.3835 748.474 32.0227 748.474 31.6023C748.474 31.1818 748.625 30.821 748.926 30.5199C749.227 30.2187 749.588 30.0682 750.008 30.0682C750.429 30.0682 750.789 30.2187 751.09 30.5199C751.392 30.821 751.542 31.1818 751.542 31.6023C751.542 31.8807 751.471 32.1364 751.329 32.3693C751.193 32.6023 751.008 32.7898 750.775 32.9318C750.548 33.0682 750.292 33.1364 750.008 33.1364Z" fill="#FEF7D2"/>
<path d="M50.2841 33L45.5114 15.5455H47.6591L51.3068 29.7614H51.4773L55.1932 15.5455H57.5795L61.2955 29.7614H61.4659L65.1136 15.5455H67.2614L62.4886 33H60.3068L56.4545 19.0909H56.3182L52.4659 33H50.2841ZM72.2949 33V15.5455H82.829V17.4205H74.4085V23.3182H82.2835V25.1932H74.4085V31.125H82.9653V33H72.2949ZM89.0386 33V15.5455H91.1523V31.125H99.2659V33H89.0386ZM118.304 21H116.191C116.066 20.392 115.847 19.858 115.535 19.3977C115.228 18.9375 114.853 18.5511 114.41 18.2386C113.972 17.9205 113.486 17.6818 112.952 17.5227C112.418 17.3636 111.861 17.2841 111.282 17.2841C110.225 17.2841 109.267 17.5511 108.41 18.0852C107.557 18.6193 106.878 19.4062 106.373 20.446C105.873 21.4858 105.623 22.7614 105.623 24.2727C105.623 25.7841 105.873 27.0597 106.373 28.0994C106.878 29.1392 107.557 29.9261 108.41 30.4602C109.267 30.9943 110.225 31.2614 111.282 31.2614C111.861 31.2614 112.418 31.1818 112.952 31.0227C113.486 30.8636 113.972 30.6278 114.41 30.3153C114.853 29.9972 115.228 29.608 115.535 29.1477C115.847 28.6818 116.066 28.1477 116.191 27.5455H118.304C118.145 28.4375 117.856 29.2358 117.435 29.9403C117.015 30.6449 116.492 31.2443 115.867 31.7386C115.242 32.2273 114.54 32.5994 113.762 32.8551C112.989 33.1108 112.162 33.2386 111.282 33.2386C109.793 33.2386 108.469 32.875 107.31 32.1477C106.151 31.4205 105.239 30.3864 104.574 29.0455C103.91 27.7045 103.577 26.1136 103.577 24.2727C103.577 22.4318 103.91 20.8409 104.574 19.5C105.239 18.1591 106.151 17.125 107.31 16.3977C108.469 15.6705 109.793 15.3068 111.282 15.3068C112.162 15.3068 112.989 15.4347 113.762 15.6903C114.54 15.946 115.242 16.321 115.867 16.8153C116.492 17.304 117.015 17.9006 117.435 18.6051C117.856 19.304 118.145 20.1023 118.304 21ZM138.847 24.2727C138.847 26.1136 138.515 27.7045 137.85 29.0455C137.185 30.3864 136.273 31.4205 135.114 32.1477C133.955 32.875 132.631 33.2386 131.143 33.2386C129.654 33.2386 128.33 32.875 127.171 32.1477C126.012 31.4205 125.1 30.3864 124.435 29.0455C123.77 27.7045 123.438 26.1136 123.438 24.2727C123.438 22.4318 123.77 20.8409 124.435 19.5C125.1 18.1591 126.012 17.125 127.171 16.3977C128.33 15.6705 129.654 15.3068 131.143 15.3068C132.631 15.3068 133.955 15.6705 135.114 16.3977C136.273 17.125 137.185 18.1591 137.85 19.5C138.515 20.8409 138.847 22.4318 138.847 24.2727ZM136.802 24.2727C136.802 22.7614 136.549 21.4858 136.043 20.446C135.543 19.4062 134.864 18.6193 134.006 18.0852C133.154 17.5511 132.199 17.2841 131.143 17.2841C130.086 17.2841 129.128 17.5511 128.27 18.0852C127.418 18.6193 126.739 19.4062 126.234 20.446C125.734 21.4858 125.484 22.7614 125.484 24.2727C125.484 25.7841 125.734 27.0597 126.234 28.0994C126.739 29.1392 127.418 29.9261 128.27 30.4602C129.128 30.9943 130.086 31.2614 131.143 31.2614C132.199 31.2614 133.154 30.9943 134.006 30.4602C134.864 29.9261 135.543 29.1392 136.043 28.0994C136.549 27.0597 136.802 25.7841 136.802 24.2727ZM144.801 15.5455H147.324L153.256 30.0341H153.46L159.392 15.5455H161.915V33H159.938V19.7386H159.767L154.312 33H152.403L146.949 19.7386H146.778V33H144.801V15.5455ZM168.553 33V15.5455H179.087V17.4205H170.666V23.3182H178.541V25.1932H170.666V31.125H179.223V33H168.553ZM193.492 17.4205V15.5455H206.583V17.4205H201.094V33H198.981V17.4205H193.492ZM226.246 24.2727C226.246 26.1136 225.913 27.7045 225.248 29.0455C224.584 30.3864 223.672 31.4205 222.513 32.1477C221.354 32.875 220.03 33.2386 218.541 33.2386C217.052 33.2386 215.729 32.875 214.569 32.1477C213.41 31.4205 212.498 30.3864 211.834 29.0455C211.169 27.7045 210.837 26.1136 210.837 24.2727C210.837 22.4318 211.169 20.8409 211.834 19.5C212.498 18.1591 213.41 17.125 214.569 16.3977C215.729 15.6705 217.052 15.3068 218.541 15.3068C220.03 15.3068 221.354 15.6705 222.513 16.3977C223.672 17.125 224.584 18.1591 225.248 19.5C225.913 20.8409 226.246 22.4318 226.246 24.2727ZM224.2 24.2727C224.2 22.7614 223.947 21.4858 223.442 20.446C222.942 19.4062 222.263 18.6193 221.405 18.0852C220.552 17.5511 219.598 17.2841 218.541 17.2841C217.484 17.2841 216.527 17.5511 215.669 18.0852C214.817 18.6193 214.138 19.4062 213.632 20.446C213.132 21.4858 212.882 22.7614 212.882 24.2727C212.882 25.7841 213.132 27.0597 213.632 28.0994C214.138 29.1392 214.817 29.9261 215.669 30.4602C216.527 30.9943 217.484 31.2614 218.541 31.2614C219.598 31.2614 220.552 30.9943 221.405 30.4602C222.263 29.9261 222.942 29.1392 223.442 28.0994C223.947 27.0597 224.2 25.7841 224.2 24.2727ZM255.19 15.5455V33H253.145L243.634 19.2955H243.463V33H241.35V15.5455H243.395L252.94 29.2841H253.111V15.5455H255.19ZM276.547 24.2727C276.547 26.1136 276.215 27.7045 275.55 29.0455C274.885 30.3864 273.973 31.4205 272.814 32.1477C271.655 32.875 270.331 33.2386 268.843 33.2386C267.354 33.2386 266.03 32.875 264.871 32.1477C263.712 31.4205 262.8 30.3864 262.135 29.0455C261.47 27.7045 261.138 26.1136 261.138 24.2727C261.138 22.4318 261.47 20.8409 262.135 19.5C262.8 18.1591 263.712 17.125 264.871 16.3977C266.03 15.6705 267.354 15.3068 268.843 15.3068C270.331 15.3068 271.655 15.6705 272.814 16.3977C273.973 17.125 274.885 18.1591 275.55 19.5C276.215 20.8409 276.547 22.4318 276.547 24.2727ZM274.502 24.2727C274.502 22.7614 274.249 21.4858 273.743 20.446C273.243 19.4062 272.564 18.6193 271.706 18.0852C270.854 17.5511 269.899 17.2841 268.843 17.2841C267.786 17.2841 266.828 17.5511 265.97 18.0852C265.118 18.6193 264.439 19.4062 263.934 20.446C263.434 21.4858 263.184 22.7614 263.184 24.2727C263.184 25.7841 263.434 27.0597 263.934 28.0994C264.439 29.1392 265.118 29.9261 265.97 30.4602C266.828 30.9943 267.786 31.2614 268.843 31.2614C269.899 31.2614 270.854 30.9943 271.706 30.4602C272.564 29.9261 273.243 29.1392 273.743 28.0994C274.249 27.0597 274.502 25.7841 274.502 24.2727ZM282.501 33V15.5455H288.399C289.762 15.5455 290.882 15.7784 291.757 16.2443C292.632 16.7045 293.28 17.3381 293.7 18.1449C294.12 18.9517 294.331 19.8693 294.331 20.8977C294.331 21.9261 294.12 22.8381 293.7 23.6335C293.28 24.429 292.635 25.054 291.765 25.5085C290.896 25.9574 289.785 26.1818 288.433 26.1818H283.66V24.2727H288.365C289.297 24.2727 290.047 24.1364 290.615 23.8636C291.189 23.5909 291.603 23.2045 291.859 22.7045C292.12 22.1989 292.251 21.5966 292.251 20.8977C292.251 20.1989 292.12 19.5881 291.859 19.0653C291.598 18.5426 291.18 18.1392 290.606 17.8551C290.032 17.5653 289.274 17.4205 288.331 17.4205H284.615V33H282.501ZM290.717 25.1591L295.012 33H292.558L288.331 25.1591H290.717ZM300.969 33H298.753L305.162 15.5455H307.344L313.753 33H311.537L306.321 18.3068H306.185L300.969 33ZM301.787 26.1818H310.719V28.0568H301.787V26.1818ZM342.067 21H339.953C339.828 20.392 339.61 19.858 339.297 19.3977C338.99 18.9375 338.615 18.5511 338.172 18.2386C337.735 17.9205 337.249 17.6818 336.715 17.5227C336.181 17.3636 335.624 17.2841 335.044 17.2841C333.987 17.2841 333.03 17.5511 332.172 18.0852C331.32 18.6193 330.641 19.4062 330.135 20.446C329.635 21.4858 329.385 22.7614 329.385 24.2727C329.385 25.7841 329.635 27.0597 330.135 28.0994C330.641 29.1392 331.32 29.9261 332.172 30.4602C333.03 30.9943 333.987 31.2614 335.044 31.2614C335.624 31.2614 336.181 31.1818 336.715 31.0227C337.249 30.8636 337.735 30.6278 338.172 30.3153C338.615 29.9972 338.99 29.608 339.297 29.1477C339.61 28.6818 339.828 28.1477 339.953 27.5455H342.067C341.908 28.4375 341.618 29.2358 341.198 29.9403C340.777 30.6449 340.254 31.2443 339.629 31.7386C339.004 32.2273 338.303 32.5994 337.524 32.8551C336.752 33.1108 335.925 33.2386 335.044 33.2386C333.556 33.2386 332.232 32.875 331.073 32.1477C329.913 31.4205 329.002 30.3864 328.337 29.0455C327.672 27.7045 327.34 26.1136 327.34 24.2727C327.34 22.4318 327.672 20.8409 328.337 19.5C329.002 18.1591 329.913 17.125 331.073 16.3977C332.232 15.6705 333.556 15.3068 335.044 15.3068C335.925 15.3068 336.752 15.4347 337.524 15.6903C338.303 15.946 339.004 16.321 339.629 16.8153C340.254 17.304 340.777 17.9006 341.198 18.6051C341.618 19.304 341.908 20.1023 342.067 21ZM348.598 33H346.382L352.791 15.5455H354.973L361.382 33H359.166L353.951 18.3068H353.814L348.598 33ZM349.416 26.1818H358.348V28.0568H349.416V26.1818ZM366.501 15.5455H369.024L374.956 30.0341H375.16L381.092 15.5455H383.615V33H381.638V19.7386H381.467L376.013 33H374.103L368.649 19.7386H368.478V33H366.501V15.5455ZM390.253 33V15.5455H396.15C397.52 15.5455 398.639 15.7926 399.508 16.2869C400.383 16.7756 401.031 17.4375 401.452 18.2727C401.872 19.108 402.082 20.0398 402.082 21.0682C402.082 22.0966 401.872 23.0312 401.452 23.8722C401.037 24.7131 400.395 25.3835 399.525 25.8835C398.656 26.3778 397.542 26.625 396.185 26.625H391.957V24.75H396.116C397.054 24.75 397.807 24.5881 398.375 24.2642C398.943 23.9403 399.355 23.5028 399.611 22.9517C399.872 22.3949 400.003 21.767 400.003 21.0682C400.003 20.3693 399.872 19.7443 399.611 19.1932C399.355 18.642 398.94 18.2102 398.366 17.8977C397.792 17.5795 397.031 17.4205 396.082 17.4205H392.366V33H390.253ZM419.423 15.5455L419.253 28.0909H417.276L417.105 15.5455H419.423ZM418.264 33.1364C417.844 33.1364 417.483 32.9858 417.182 32.6847C416.881 32.3835 416.73 32.0227 416.73 31.6023C416.73 31.1818 416.881 30.821 417.182 30.5199C417.483 30.2187 417.844 30.0682 418.264 30.0682C418.685 30.0682 419.046 30.2187 419.347 30.5199C419.648 30.821 419.798 31.1818 419.798 31.6023C419.798 31.8807 419.727 32.1364 419.585 32.3693C419.449 32.6023 419.264 32.7898 419.031 32.9318C418.804 33.0682 418.548 33.1364 418.264 33.1364Z" fill="white"/>
<path d="M433 34.4882V30.3215C433 30.0249 433.044 29.7415 433.133 29.4715C433.224 29.2026 433.359 28.9476 433.538 28.7065L446.975 10.6299L445.603 8.78319C445.528 8.69541 445.478 8.59541 445.455 8.48319C445.432 8.37208 445.428 8.26541 445.445 8.16319C445.462 8.06097 445.499 7.96097 445.558 7.86319C445.616 7.76541 445.688 7.6793 445.775 7.60486C445.972 7.45486 446.175 7.39708 446.385 7.43152C446.594 7.46486 446.773 7.57986 446.923 7.77652L448 9.24819L449.077 7.77652C449.227 7.57986 449.412 7.46486 449.632 7.43152C449.852 7.39708 450.06 7.45486 450.257 7.60486C450.453 7.75486 450.569 7.9393 450.603 8.15819C450.637 8.37819 450.579 8.58652 450.43 8.78319L449.058 10.6299L462.462 28.7065C462.641 28.9476 462.775 29.2032 462.865 29.4732C462.955 29.7421 463 30.0254 463 30.3232V34.4899C463 34.8754 462.872 35.196 462.617 35.4515C462.361 35.7071 462.04 35.8349 461.653 35.8349H434.347C433.96 35.8349 433.639 35.7071 433.383 35.4515C433.128 35.196 433 34.8749 433 34.4882ZM441.132 34.1682H454.868L448 24.5432L441.132 34.1682Z" fill="white"/>
<path opacity="0.2" d="M36.25 18.6875C36.25 29 20 37.75 20 37.75C20 37.75 3.75 29 3.75 18.6875C3.75 16.4497 4.63895 14.3036 6.22129 12.7213C7.80363 11.1389 9.94974 10.25 12.1875 10.25C15.7172 10.25 18.7406 12.1734 20 15.25C21.2594 12.1734 24.2828 10.25 27.8125 10.25C30.0503 10.25 32.1964 11.1389 33.7787 12.7213C35.3611 14.3036 36.25 16.4497 36.25 18.6875Z" fill="#FEF7D2"/>
<path d="M27.8125 9C24.5859 9 21.7609 10.3875 20 12.7328C18.2391 10.3875 15.4141 9 12.1875 9C9.6191 9.00289 7.15673 10.0245 5.3406 11.8406C3.52447 13.6567 2.50289 16.1191 2.5 18.6875C2.5 29.625 18.7172 38.4781 19.4078 38.8438C19.5898 38.9417 19.7933 38.9929 20 38.9929C20.2067 38.9929 20.4102 38.9417 20.5922 38.8438C21.2828 38.4781 37.5 29.625 37.5 18.6875C37.4971 16.1191 36.4755 13.6567 34.6594 11.8406C32.8433 10.0245 30.3809 9.00289 27.8125 9ZM20 36.3125C17.1469 34.65 5 27.0766 5 18.6875C5.00248 16.782 5.76053 14.9553 7.10791 13.6079C8.45529 12.2605 10.282 11.5025 12.1875 11.5C15.2266 11.5 17.7781 13.1188 18.8438 15.7188C18.9379 15.948 19.0981 16.1441 19.304 16.2821C19.5099 16.4201 19.7521 16.4938 20 16.4938C20.2479 16.4938 20.4901 16.4201 20.696 16.2821C20.9019 16.1441 21.0621 15.948 21.1562 15.7188C22.2219 13.1141 24.7734 11.5 27.8125 11.5C29.718 11.5025 31.5447 12.2605 32.8921 13.6079C34.2395 14.9553 34.9975 16.782 35 18.6875C35 27.0641 22.85 34.6484 20 36.3125Z" fill="#FEF7D2"/>
</svg>
